<?xml version="1.0" encoding="UTF-8"?>
<svg version="1.1" xmlns="http://www.w3.org/2000/svg" width="64" height="64">
<path d="M0 0 C2.56946573 2.0157712 4.86862157 4.26646766 7.1875 6.5625 C12.58379808 11.77950129 18.03729482 16.59464534 24.0234375 21.1328125 C26 23 26 23 27 27 C23.7 27 20.4 27 17 27 C17.01571045 28.21115479 17.01571045 28.21115479 17.03173828 29.44677734 C17.07319831 33.08948682 17.09929438 36.73214675 17.125 40.375 C17.14175781 41.64601562 17.15851562 42.91703125 17.17578125 44.2265625 C17.18544922 46.04414062 17.18544922 46.04414062 17.1953125 47.8984375 C17.21102295 49.57945557 17.21102295 49.57945557 17.22705078 51.29443359 C17 54 17 54 15 56 C12.1796875 56.1953125 12.1796875 56.1953125 8.875 56.125 C7.77929688 56.10695312 6.68359375 56.08890625 5.5546875 56.0703125 C4.71164063 56.04710937 3.86859375 56.02390625 3 56 C2.93941406 54.79601563 2.87882812 53.59203125 2.81640625 52.3515625 C2.73200268 50.77602923 2.64735459 49.20050904 2.5625 47.625 C2.52318359 46.8309375 2.48386719 46.036875 2.44335938 45.21875 C2.31106596 40.97398779 2.31106596 40.97398779 1 37 C-2.96 37 -6.92 37 -11 37 C-12.6498007 40.29960141 -12.38258361 43.99127884 -12.5625 47.625 C-12.60568359 48.42679688 -12.64886719 49.22859375 -12.69335938 50.0546875 C-12.79951457 52.0362511 -12.90026855 54.01810271 -13 56 C-14.95803507 56.05389087 -16.91648909 56.09274217 -18.875 56.125 C-19.96554688 56.14820313 -21.05609375 56.17140625 -22.1796875 56.1953125 C-25 56 -25 56 -27 54 C-27.22705078 51.29443359 -27.22705078 51.29443359 -27.1953125 47.8984375 C-27.18886719 46.68671875 -27.18242187 45.475 -27.17578125 44.2265625 C-27.15902344 42.95554688 -27.14226563 41.68453125 -27.125 40.375 C-27.11597656 39.09625 -27.10695313 37.8175 -27.09765625 36.5 C-27.07402303 33.33314833 -27.04107629 30.16666576 -27 27 C-30.3 27 -33.6 27 -37 27 C-35.77927713 22.11710852 -33.42435778 20.46220063 -29.6875 17.4375 C-28.41111191 16.37828545 -27.13640434 15.31704294 -25.86328125 14.25390625 C-25.2182666 13.71652832 -24.57325195 13.17915039 -23.90869141 12.62548828 C-19.98559327 9.28448197 -16.26736469 5.71846799 -12.5234375 2.1796875 C-7.83036003 -1.8740853 -5.84426179 -2.80438936 0 0 Z " fill="#000000" transform="translate(37,5)"/>
</svg>
