<?xml version="1.0" encoding="UTF-8"?>
<svg version="1.1" xmlns="http://www.w3.org/2000/svg" width="512" height="512">
<path d="M0 0 C23.85927494 18.01087979 40.10613966 43.90299768 44.92626953 73.45410156 C45.20277344 75.07058594 45.20277344 75.07058594 45.48486328 76.71972656 C46.03068453 81.33747092 46.11036614 85.87096719 46.11376953 90.51660156 C46.12601562 91.36931641 46.13826172 92.22203125 46.15087891 93.10058594 C46.16271125 98.4290855 45.69428324 103.53785555 44.91186523 108.8112793 C44.72831985 110.05908676 44.54477448 111.30689423 44.35566711 112.59251404 C44.21396591 113.53683792 44.07226471 114.4811618 43.92626953 115.45410156 C45.21586578 115.44521912 46.50546204 115.43633667 47.83413696 115.42718506 C59.9877549 115.34609595 72.14131795 115.2861344 84.29514503 115.24685287 C90.54355774 115.22597892 96.79175205 115.19766409 103.04003906 115.15234375 C109.07007367 115.10888019 115.0998982 115.08496302 121.13007736 115.07459259 C123.43058962 115.06720222 125.73109039 115.05277063 128.03151321 115.03118134 C131.25400889 115.00214143 134.4756367 114.99814593 137.69824219 115 C138.64914734 114.9856189 139.60005249 114.97123779 140.57977295 114.9564209 C146.18858719 114.9913357 149.58525977 115.55227215 153.92626953 119.45410156 C158.98522789 124.85707225 158.49408204 130.42152793 158.44384766 137.42285156 C158.45436157 139.22387329 158.45436157 139.22387329 158.46508789 141.0612793 C158.4796452 144.34243356 158.4762776 147.6229391 158.46357155 150.90408325 C158.45341454 154.34459757 158.4628447 157.78506985 158.46911621 161.22558594 C158.47638481 167.0023573 158.46682579 172.77892383 158.44775391 178.55566406 C158.42598643 185.22573004 158.43303837 191.89530689 158.45505953 198.56536102 C158.47323617 204.30145186 158.47576087 210.03739582 158.46530485 215.77350616 C158.45908226 219.19535841 158.45819993 222.61698105 158.47145081 226.03881836 C158.48160898 229.85466582 158.46612321 233.66957405 158.44384766 237.48535156 C158.45194458 238.61384521 158.4600415 239.74233887 158.46838379 240.9050293 C158.40366929 246.8888088 158.20579341 250.88356738 153.92626953 255.45410156 C148.59885035 260.40450338 143.41818819 259.93447561 136.55126953 259.70410156 C135.52904297 259.68605469 134.50681641 259.66800781 133.45361328 259.64941406 C130.94352205 259.60249647 128.43539189 259.53686886 125.92626953 259.45410156 C125.9299567 260.43771038 125.93364388 261.4213192 125.93744278 262.43473434 C126.02634769 286.39798035 126.09202314 310.3612049 126.13351822 334.32458115 C126.15411969 345.9132245 126.18219414 357.50175873 126.22802734 369.09033203 C126.26796901 379.19411521 126.29371989 389.29781934 126.30262351 399.40167928 C126.30782583 404.74872837 126.32000284 410.09555134 126.34918976 415.44252777 C126.37647468 420.48221244 126.38468819 425.52157927 126.37870026 430.5613308 C126.37979466 432.40429859 126.38767022 434.24727775 126.40309143 436.09018135 C126.53195774 452.29423621 123.89242536 465.44610369 112.70751953 477.93066406 C104.59423773 485.80686945 94.09767667 491.56635521 82.62341976 491.58832264 C81.54238663 491.59278048 80.46135349 491.59723833 79.34756178 491.60183126 C78.16052249 491.60164689 76.9734832 491.60146253 75.75047302 491.60127258 C74.48891532 491.60494927 73.22735761 491.60862596 71.92757088 491.61241406 C68.42335555 491.62242479 64.91915735 491.62614937 61.41492975 491.62880337 C57.63628753 491.63270922 53.85765884 491.64228742 50.07902527 491.65101624 C40.95190169 491.67077352 31.82477702 491.68084627 22.69763741 491.68974403 C18.39797827 491.69412844 14.09832036 491.69949489 9.79866219 491.70473289 C-4.4973109 491.72174503 -18.79328322 491.73623851 -33.08926487 491.74348164 C-36.79868636 491.74539149 -40.50810783 491.74731183 -44.2175293 491.74926758 C-45.13947246 491.74975132 -46.06141561 491.75023506 -47.01129644 491.75073346 C-61.94132544 491.75903118 -76.87127424 491.78436381 -91.80126823 491.81684826 C-107.13458785 491.84993783 -122.46786675 491.86793214 -137.80122226 491.87112588 C-146.40827369 491.8732893 -155.01520821 491.88201327 -163.62222481 491.90758705 C-170.95348992 491.92932006 -178.28460972 491.93733174 -185.61590338 491.92762027 C-189.35402442 491.92308296 -193.09184582 491.92492818 -196.82992554 491.94438171 C-200.8898427 491.96532688 -204.94909865 491.95500439 -209.00904846 491.94184875 C-210.76618482 491.95830262 -210.76618482 491.95830262 -212.55881888 491.97508889 C-225.52018521 491.87391417 -236.68500654 487.10139644 -246.33154297 478.42285156 C-255.25424121 469.0591074 -260.41743618 457.22655524 -260.3142395 444.28529358 C-260.31594835 443.491187 -260.3176572 442.69708042 -260.31941783 441.87891001 C-260.32269691 439.23338882 -260.31173529 436.58812454 -260.30078125 433.94262695 C-260.30021679 432.04014085 -260.30053437 430.13765431 -260.30166626 428.23516846 C-260.30223943 423.08075036 -260.29049086 417.92642559 -260.27651834 412.77202916 C-260.26400506 407.38150714 -260.26284001 401.99098291 -260.26046753 396.60044861 C-260.25425453 386.39732094 -260.23784611 376.19423621 -260.21776855 365.99112743 C-260.19540398 354.37329614 -260.18441471 342.75546279 -260.17437768 331.13761532 C-260.15347975 307.24308695 -260.11830724 283.34859666 -260.07373047 259.45410156 C-260.70875488 259.47504883 -261.3437793 259.49599609 -261.99804688 259.51757812 C-264.89811123 259.60114737 -267.79792163 259.6528893 -270.69873047 259.70410156 C-271.69775391 259.73761719 -272.69677734 259.77113281 -273.72607422 259.80566406 C-279.6849841 259.88459002 -283.50488659 259.69961187 -288.07373047 255.45410156 C-293.13268883 250.05113087 -292.64154298 244.48667519 -292.59130859 237.48535156 C-292.59831787 236.28467041 -292.60532715 235.08398926 -292.61254883 233.84692383 C-292.62710614 230.56576956 -292.62373853 227.28526402 -292.61103249 224.00411987 C-292.60087548 220.56360556 -292.61030563 217.12313328 -292.61657715 213.68261719 C-292.62384575 207.90584582 -292.61428673 202.1292793 -292.59521484 196.35253906 C-292.57344736 189.68247308 -292.58049931 183.01289624 -292.60252047 176.3428421 C-292.62069711 170.60675126 -292.62322181 164.87080731 -292.61276579 159.13469696 C-292.6065432 155.71284472 -292.60566087 152.29122208 -292.61891174 148.86938477 C-292.62906991 145.0535373 -292.61358415 141.23862908 -292.59130859 137.42285156 C-292.59940552 136.29435791 -292.60750244 135.16586426 -292.61584473 134.00317383 C-292.55113023 128.01939432 -292.35325435 124.02463574 -288.07373047 119.45410156 C-282.92307822 114.82454126 -278.42779247 114.90045515 -271.84570312 115 C-270.83045563 114.99941589 -269.81520813 114.99883179 -268.76919556 114.99822998 C-265.42504272 115.00100898 -262.08178944 115.03209341 -258.73779297 115.06347656 C-256.41466763 115.07093958 -254.09153599 115.07663222 -251.7684021 115.08062744 C-245.66252168 115.09587885 -239.5570236 115.13515702 -233.45129395 115.17944336 C-227.21741915 115.22040633 -220.9834824 115.23864069 -214.74951172 115.25878906 C-202.52408359 115.30165126 -190.29893886 115.3698971 -178.07373047 115.45410156 C-178.21461594 114.50569901 -178.3555014 113.55729645 -178.50065613 112.58015442 C-178.68356705 111.32917465 -178.86647797 110.07819489 -179.05493164 108.78930664 C-179.23706711 107.55215408 -179.41920258 106.31500153 -179.6068573 105.0403595 C-180.21251994 100.38799866 -180.41807715 95.82814007 -180.38623047 91.14160156 C-180.37885864 89.80621338 -180.37885864 89.80621338 -180.37133789 88.44384766 C-179.83344161 57.53274154 -166.27460277 31.26949191 -145.07373047 9.45410156 C-144.04892578 8.390625 -144.04892578 8.390625 -143.00341797 7.30566406 C-105.03807872 -29.17083835 -41.72724072 -29.67034804 0 0 Z M-102.07373047 19.45410156 C-101.45225812 24.1196476 -99.47273301 27.92917832 -97.38623047 32.07910156 C-94.37562974 38.28461168 -91.84335137 44.50249003 -89.76123047 51.07910156 C-89.53153564 51.79275879 -89.30184082 52.50641602 -89.06518555 53.24169922 C-86.82405299 60.59405727 -85.60119529 67.81677746 -84.07373047 75.45410156 C-72.85373047 75.45410156 -61.63373047 75.45410156 -50.07373047 75.45410156 C-49.39310547 72.21597656 -48.71248047 68.97785156 -48.01123047 65.64160156 C-44.83265809 51.27578506 -40.18197065 37.64783808 -33.14013672 24.70410156 C-31.85958614 22.41726793 -31.85958614 22.41726793 -32.07373047 19.45410156 C-56.44888375 10.36976278 -77.7202464 9.48119401 -102.07373047 19.45410156 Z M-130.07373047 42.45410156 C-138.02381909 52.87389227 -142.49078692 62.53938384 -145.07373047 75.45410156 C-135.83373047 75.45410156 -126.59373047 75.45410156 -117.07373047 75.45410156 C-119.01316904 66.76541678 -121.12170527 58.67456584 -124.69873047 50.51660156 C-124.99980713 49.82501953 -125.30088379 49.1334375 -125.61108398 48.42089844 C-127.09251788 44.778301 -127.09251788 44.778301 -130.07373047 42.45410156 Z M-5.07373047 42.45410156 C-10.85386675 52.94177152 -14.7239317 63.70510772 -17.07373047 75.45410156 C-7.83373047 75.45410156 1.40626953 75.45410156 10.92626953 75.45410156 C9.50500066 68.34775721 8.35247902 63.39636245 5.11376953 57.26660156 C4.783125 56.60724609 4.45248047 55.94789062 4.11181641 55.26855469 C1.75776964 50.6824559 -0.94331325 46.55181239 -4.07373047 42.45410156 C-4.40373047 42.45410156 -4.73373047 42.45410156 -5.07373047 42.45410156 Z M-145.07373047 107.45410156 C-143.6524616 114.56044591 -142.49993995 119.51184067 -139.26123047 125.64160156 C-138.76526367 126.63063477 -138.76526367 126.63063477 -138.25927734 127.63964844 C-135.9046388 132.22690012 -133.14860456 136.31670554 -130.07373047 140.45410156 C-127.69619312 138.31118686 -126.46733111 136.48379254 -125.31982422 133.50488281 C-125.02269531 132.73853516 -124.72556641 131.9721875 -124.41943359 131.18261719 C-124.11972656 130.38533203 -123.82001953 129.58804688 -123.51123047 128.76660156 C-123.20765625 127.98865234 -122.90408203 127.21070313 -122.59130859 126.40917969 C-120.20932079 120.18695012 -118.07373047 114.18389553 -118.07373047 107.45410156 C-126.98373047 107.45410156 -135.89373047 107.45410156 -145.07373047 107.45410156 Z M-84.07373047 107.45410156 C-84.93998047 111.08410156 -85.80623047 114.71410156 -86.69873047 118.45410156 C-90.52977746 133.99969485 -96.09427458 148.08220424 -103.07373047 162.45410156 C-84.09288359 172.07765719 -62.87312415 173.42005352 -42.41357422 167.62207031 C-38.87665344 166.38518223 -35.49643594 164.97578845 -32.07373047 163.45410156 C-33.56937293 158.53765633 -35.62989956 154.10984662 -37.88623047 149.51660156 C-44.39689187 135.9056728 -47.99202785 122.17779185 -51.07373047 107.45410156 C-61.96373047 107.45410156 -72.85373047 107.45410156 -84.07373047 107.45410156 Z M-17.07373047 107.45410156 C-16.38930787 113.82552385 -16.38930787 113.82552385 -14.80419922 119.67285156 C-14.43004883 120.73052734 -14.43004883 120.73052734 -14.04833984 121.80957031 C-13.78859375 122.51726562 -13.52884766 123.22496094 -13.26123047 123.95410156 C-13.01308594 124.66179687 -12.76494141 125.36949219 -12.50927734 126.09863281 C-10.71547882 131.09205668 -8.51816806 135.74551028 -6.07373047 140.45410156 C-1.9054331 138.6174269 -0.28130777 136.10074616 1.86376953 132.20410156 C2.20859375 131.58946045 2.55341797 130.97481934 2.90869141 130.34155273 C6.62304122 123.50732265 10.92626953 115.30828879 10.92626953 107.45410156 C1.68626953 107.45410156 -7.55373047 107.45410156 -17.07373047 107.45410156 Z M-227.07373047 259.45410156 C-227.13560547 290.35035156 -227.19748047 321.24660156 -227.26123047 353.07910156 C-227.28854248 362.83939941 -227.31585449 372.59969727 -227.34399414 382.65576172 C-227.35402663 391.39481958 -227.35402663 391.39481958 -227.36006165 400.13388062 C-227.36285979 404.0303356 -227.37411491 407.92666831 -227.39045715 411.8230896 C-227.41102328 416.79236631 -227.417206 421.76146504 -227.4129473 426.73078036 C-227.41383791 428.55503991 -227.41979345 430.37930564 -227.43137586 432.20352864 C-227.44629535 434.66770018 -227.44270197 437.13118005 -227.43449402 439.59536743 C-227.44323201 440.30918264 -227.45197001 441.02299786 -227.46097279 441.75844383 C-227.40895336 447.56805277 -225.93857719 451.58925484 -221.82373047 455.70410156 C-215.70876367 459.59544407 -209.67456996 459.73598001 -202.64013672 459.64941406 C-201.76219955 459.64658417 -200.88426239 459.64375427 -199.97972107 459.64083862 C-197.19841402 459.62971755 -194.41743883 459.60462828 -191.63623047 459.57910156 C-189.74105285 459.56906132 -187.84587015 459.5599373 -185.95068359 459.55175781 C-181.32490629 459.52980471 -176.69937449 459.49533116 -172.07373047 459.45410156 C-172.07134212 458.82056952 -172.06895376 458.18703747 -172.06649303 457.53430748 C-172.00732475 442.11015236 -171.93176311 426.68617749 -171.83801556 411.26219749 C-171.79307388 403.80323068 -171.75365552 396.34431144 -171.72729492 388.88525391 C-171.70430158 382.38298548 -171.67088876 375.88086781 -171.62502891 369.37871897 C-171.6011145 365.93671543 -171.58237414 362.49486103 -171.57611656 359.05277634 C-171.56893097 355.20770672 -171.53848038 351.36301046 -171.50610352 347.51806641 C-171.5075386 346.38014648 -171.50897369 345.24222656 -171.51045227 344.06982422 C-171.44382913 338.48198878 -171.33295908 334.22486752 -168.07373047 329.45410156 C-163.16978114 325.02858631 -160.16313009 324.30594157 -153.72966003 324.31365967 C-152.58082674 324.30920298 -152.58082674 324.30920298 -151.40878469 324.30465627 C-148.82858318 324.29594737 -146.24842795 324.29445918 -143.66821289 324.29296875 C-141.82383627 324.28834211 -139.9794606 324.28331766 -138.13508606 324.27792358 C-133.1143681 324.26478244 -128.09366353 324.25835125 -123.07293105 324.25391293 C-119.93810263 324.25098488 -116.80327789 324.24688058 -113.66845131 324.24240875 C-103.86591743 324.22872912 -94.06339194 324.21906482 -84.26084918 324.21520686 C-72.9349151 324.21072522 -61.60910165 324.19317434 -50.28320426 324.16420627 C-41.53580959 324.14260779 -32.7884489 324.13250356 -24.04102784 324.13116574 C-18.81333269 324.13011637 -13.58575087 324.12418055 -8.35808372 324.10634613 C-3.44071324 324.08989721 1.47645836 324.08769446 6.39384651 324.09648514 C8.19943015 324.09725723 10.00502434 324.09289023 11.81058121 324.08302689 C14.27437516 324.0703564 16.7374595 324.07615722 19.20124817 324.08660889 C20.27460292 324.07452428 20.27460292 324.07452428 21.3696416 324.06219554 C25.73828434 324.1055781 28.43610736 324.81234211 31.92626953 327.45410156 C35.8040983 331.76280019 37.0438696 334.78359757 37.08448792 340.52238464 C37.09917114 342.09360329 37.09917114 342.09360329 37.114151 343.69656372 C37.11990646 344.84526947 37.12566193 345.99397522 37.1315918 347.17749023 C37.14149139 348.38737106 37.15139099 349.59725189 37.16159058 350.84379578 C37.18778405 354.16168887 37.20964373 357.47955784 37.22959256 360.79749084 C37.25145937 364.26486663 37.27884466 367.73219868 37.3056488 371.19953918 C37.35556629 377.76553568 37.40050862 384.33155647 37.44367117 390.89760047 C37.49305161 398.37276825 37.54796675 405.84789215 37.60335076 413.32301748 C37.71715631 428.70000495 37.82399846 444.07703279 37.92626953 459.45410156 C43.4580598 459.5287262 48.98955159 459.58292654 54.52172852 459.61889648 C56.40036123 459.63390489 58.27895937 459.65431809 60.1574707 459.68041992 C62.87085546 459.71715542 65.58377363 459.73390763 68.29736328 459.74707031 C69.12586288 459.76255417 69.95436249 459.77803802 70.80796814 459.79399109 C76.92557561 459.79572352 83.75346638 459.21135531 88.55662537 455.03727722 C92.75409786 450.1854066 93.07123916 446.08728129 93.04652405 439.95613098 C93.04738007 439.18771881 93.04823608 438.41930664 93.04911804 437.62760925 C93.05077717 435.03695377 93.04524321 432.4463625 93.03979492 429.85571289 C93.03948869 427.97303361 93.0396219 426.09035421 93.04016018 424.20767498 C93.04038635 419.1566262 93.03458189 414.10560101 93.02754974 409.0545578 C93.02186344 404.3183942 93.02158709 399.58223641 93.02087402 394.84606934 C93.01562242 380.98624361 93.00166133 367.12642229 92.98876953 353.26660156 C92.96814453 322.30847656 92.94751953 291.35035156 92.92626953 259.45410156 C-12.67373047 259.45410156 -118.27373047 259.45410156 -227.07373047 259.45410156 Z M-139.07373047 355.45410156 C-139.07373047 389.77410156 -139.07373047 424.09410156 -139.07373047 459.45410156 C-120.92373047 459.45410156 -102.77373047 459.45410156 -84.07373047 459.45410156 C-84.07373047 425.13410156 -84.07373047 390.81410156 -84.07373047 355.45410156 C-102.22373047 355.45410156 -120.37373047 355.45410156 -139.07373047 355.45410156 Z M-50.07373047 355.45410156 C-50.07373047 389.77410156 -50.07373047 424.09410156 -50.07373047 459.45410156 C-31.92373047 459.45410156 -13.77373047 459.45410156 4.92626953 459.45410156 C4.92626953 425.13410156 4.92626953 390.81410156 4.92626953 355.45410156 C-13.22373047 355.45410156 -31.37373047 355.45410156 -50.07373047 355.45410156 Z " fill="#000000" transform="translate(323.07373046875,20.5458984375)"/>
</svg>
